<svg width="985" height="70" viewBox="0 0 985 70" fill="none" xmlns="http://www.w3.org/2000/svg">
<path d="M0.4145 69V1.8H47.2625V15.816H16.4465V54.984H48.3185V69H0.4145ZM8.1905 41.544V28.104H43.0385V41.544H8.1905ZM62.2895 69V1.8H76.9775L112.306 49.704L109.138 49.32C108.69 45.736 108.306 42.408 107.986 39.336C107.666 36.2 107.442 32.936 107.314 29.544C107.25 26.152 107.218 22.248 107.218 17.832V1.8H123.154V69H108.274L71.6015 19.656L76.3055 20.328C76.7535 24.232 77.1055 27.464 77.3615 30.024C77.6175 32.584 77.8095 34.792 77.9375 36.648C78.0655 38.44 78.1615 40.136 78.2255 41.736C78.2895 43.272 78.3215 45 78.3215 46.92V69H62.2895ZM162.189 69.96C155.533 69.96 149.901 68.808 145.293 66.504C140.749 64.136 136.845 60.808 133.581 56.52L143.565 45.288C146.701 49.576 149.869 52.456 153.069 53.928C156.269 55.4 159.565 56.136 162.957 56.136C164.685 56.136 166.221 55.912 167.565 55.464C168.973 55.016 170.061 54.376 170.829 53.544C171.661 52.648 172.077 51.592 172.077 50.376C172.077 49.416 171.821 48.552 171.309 47.784C170.861 47.016 170.221 46.344 169.389 45.768C168.557 45.192 167.597 44.68 166.509 44.232C165.421 43.72 164.205 43.304 162.861 42.984C161.581 42.664 160.269 42.376 158.925 42.12C155.213 41.352 151.981 40.36 149.229 39.144C146.541 37.864 144.269 36.36 142.413 34.632C140.621 32.84 139.277 30.824 138.381 28.584C137.485 26.28 137.037 23.688 137.037 20.808C137.037 16.712 138.189 13.128 140.493 10.056C142.861 6.984 145.965 4.584 149.805 2.856C153.645 1.128 157.805 0.263998 162.285 0.263998C168.813 0.263998 174.061 1.32 178.029 3.432C182.061 5.48 185.261 8.328 187.629 11.976L177.453 21.864C175.469 19.304 173.197 17.384 170.637 16.104C168.141 14.824 165.517 14.184 162.765 14.184C160.909 14.184 159.277 14.408 157.869 14.856C156.461 15.304 155.373 15.976 154.605 16.872C153.901 17.704 153.549 18.728 153.549 19.944C153.549 20.968 153.837 21.896 154.413 22.728C155.053 23.496 155.917 24.168 157.005 24.744C158.093 25.32 159.341 25.832 160.749 26.28C162.157 26.664 163.629 26.984 165.165 27.24C168.685 27.944 171.853 28.872 174.669 30.024C177.549 31.176 180.013 32.616 182.061 34.344C184.109 36.008 185.677 37.992 186.765 40.296C187.917 42.536 188.493 45.128 188.493 48.072C188.493 52.68 187.373 56.616 185.133 59.88C182.893 63.144 179.789 65.64 175.821 67.368C171.853 69.096 167.309 69.96 162.189 69.96ZM200.758 69V1.8H215.446L239.83 41.448L229.462 41.352L254.134 1.8H268.342V69H252.406V48.648C252.406 42.76 252.534 37.48 252.79 32.808C253.11 28.072 253.622 23.432 254.326 18.888L256.15 23.88L237.622 52.584H231.094L212.95 24.072L214.774 18.888C215.542 23.176 216.054 27.624 216.31 32.232C216.63 36.776 216.79 42.248 216.79 48.648V69H200.758ZM285.04 69V1.8H315.472C319.824 1.8 323.728 2.728 327.184 4.584C330.64 6.44 333.36 9 335.344 12.264C337.392 15.464 338.416 19.144 338.416 23.304C338.416 27.528 337.392 31.304 335.344 34.632C333.36 37.96 330.64 40.616 327.184 42.6C323.728 44.52 319.824 45.48 315.472 45.48H300.688V69H285.04ZM322.384 69L305.296 38.568L322.096 36.168L341.104 69.096L322.384 69ZM300.688 32.712H314.032C315.696 32.712 317.136 32.36 318.352 31.656C319.632 30.888 320.592 29.864 321.232 28.584C321.936 27.304 322.288 25.832 322.288 24.168C322.288 22.44 321.872 20.936 321.04 19.656C320.272 18.376 319.152 17.384 317.68 16.68C316.272 15.912 314.576 15.528 312.592 15.528H300.688V32.712ZM383.29 69V1.8H412.378C416.602 1.8 420.378 2.76 423.706 4.68C427.034 6.6 429.658 9.224 431.578 12.552C433.498 15.816 434.458 19.56 434.458 23.784C434.458 28.072 433.498 31.944 431.578 35.4C429.658 38.856 427.034 41.576 423.706 43.56C420.378 45.544 416.602 46.536 412.378 46.536H399.706V69H383.29ZM399.514 32.04H410.17C411.578 32.04 412.826 31.72 413.914 31.08C415.066 30.376 415.994 29.416 416.698 28.2C417.402 26.984 417.754 25.608 417.754 24.072C417.754 22.472 417.402 21.096 416.698 19.944C415.994 18.792 415.066 17.896 413.914 17.256C412.826 16.616 411.578 16.296 410.17 16.296H399.514V32.04ZM432.219 69L458.811 1.8H472.731L499.131 69H482.619L469.851 34.92C469.403 33.576 468.891 32.136 468.315 30.6C467.803 29.064 467.291 27.464 466.779 25.8C466.267 24.136 465.787 22.536 465.339 21C464.891 19.464 464.507 18.024 464.187 16.68L466.971 16.584C466.587 18.184 466.171 19.752 465.723 21.288C465.275 22.824 464.795 24.36 464.283 25.896C463.771 27.432 463.227 28.968 462.651 30.504C462.139 31.976 461.595 33.512 461.019 35.112L448.347 69H432.219ZM444.891 56.136L450.075 43.656H480.795L485.979 56.136H444.891ZM517.319 69V16.296H497.543V1.8H554.183V16.296H533.735V69H517.319ZM565.633 69V1.8H596.065C600.417 1.8 604.321 2.728 607.777 4.584C611.233 6.44 613.953 9 615.937 12.264C617.985 15.464 619.009 19.144 619.009 23.304C619.009 27.528 617.985 31.304 615.937 34.632C613.953 37.96 611.233 40.616 607.777 42.6C604.321 44.52 600.417 45.48 596.065 45.48H581.281V69H565.633ZM602.977 69L585.889 38.568L602.689 36.168L621.697 69.096L602.977 69ZM581.281 32.712H594.625C596.289 32.712 597.729 32.36 598.945 31.656C600.225 30.888 601.185 29.864 601.825 28.584C602.529 27.304 602.881 25.832 602.881 24.168C602.881 22.44 602.465 20.936 601.633 19.656C600.865 18.376 599.745 17.384 598.273 16.68C596.865 15.912 595.169 15.528 593.185 15.528H581.281V32.712ZM631.979 69V55.176H643.307V15.624H631.979V1.8H671.051V15.624H659.723V55.176H671.051V69H631.979ZM686.477 69V1.8H701.165L725.549 41.448L715.181 41.352L739.853 1.8H754.061V69H738.125V48.648C738.125 42.76 738.253 37.48 738.509 32.808C738.829 28.072 739.341 23.432 740.045 18.888L741.869 23.88L723.341 52.584H716.813L698.669 24.072L700.493 18.888C701.261 23.176 701.773 27.624 702.029 32.232C702.349 36.776 702.509 42.248 702.509 48.648V69H686.477ZM801.382 69.96C796.326 69.96 791.654 69.096 787.366 67.368C783.142 65.64 779.462 63.24 776.326 60.168C773.254 57.032 770.854 53.352 769.126 49.128C767.398 44.84 766.534 40.168 766.534 35.112C766.534 30.12 767.398 25.512 769.126 21.288C770.854 17 773.254 13.288 776.326 10.152C779.462 7.016 783.142 4.584 787.366 2.856C791.654 1.128 796.326 0.263998 801.382 0.263998C806.374 0.263998 810.982 1.128 815.206 2.856C819.43 4.584 823.078 7.016 826.15 10.152C829.286 13.288 831.718 17 833.446 21.288C835.174 25.512 836.038 30.152 836.038 35.208C836.038 40.2 835.174 44.808 833.446 49.032C831.718 53.256 829.286 56.936 826.15 60.072C823.078 63.208 819.43 65.64 815.206 67.368C810.982 69.096 806.374 69.96 801.382 69.96ZM801.382 54.504C804.006 54.504 806.406 54.024 808.582 53.064C810.758 52.104 812.646 50.76 814.246 49.032C815.91 47.304 817.19 45.256 818.086 42.888C818.982 40.52 819.43 37.96 819.43 35.208C819.43 32.392 818.982 29.8 818.086 27.432C817.19 25.064 815.91 23.016 814.246 21.288C812.646 19.496 810.758 18.12 808.582 17.16C806.406 16.2 804.006 15.72 801.382 15.72C798.758 15.72 796.326 16.2 794.086 17.16C791.91 18.12 789.99 19.496 788.326 21.288C786.726 23.016 785.478 25.064 784.582 27.432C783.686 29.8 783.238 32.392 783.238 35.208C783.238 38.92 784.006 42.248 785.542 45.192C787.142 48.072 789.286 50.344 791.974 52.008C794.726 53.672 797.862 54.504 801.382 54.504ZM848.477 69V1.8H863.165L898.493 49.704L895.325 49.32C894.877 45.736 894.493 42.408 894.173 39.336C893.853 36.2 893.629 32.936 893.501 29.544C893.437 26.152 893.405 22.248 893.405 17.832V1.8H909.341V69H894.461L857.789 19.656L862.493 20.328C862.941 24.232 863.293 27.464 863.549 30.024C863.805 32.584 863.997 34.792 864.125 36.648C864.253 38.44 864.349 40.136 864.413 41.736C864.477 43.272 864.509 45 864.509 46.92V69H848.477ZM943.48 69V35.496L944.152 40.2L916.984 1.8H935.608L956.248 31.368L947.896 31.08L966.424 1.8H984.568L958.552 41.256L959.992 34.632V69H943.48Z" fill="white"/>
</svg>
